<svg xmlns="http://www.w3.org/2000/svg" width="30" height="28.001" viewBox="0 0 30 28.001">
  <g id="Vector_Smart_Object" data-name="Vector Smart Object" transform="translate(-695 -1270)">
    <g id="Vector_Smart_Object-2" data-name="Vector Smart Object" transform="translate(360.317 823.432)">
      <g id="Сгруппировать_1" data-name="Сгруппировать 1">
        <path id="Контур_1" data-name="Контур 1" d="M341.522,458.8h-6.838v3.545h6.838Zm6.267,15.773h3.8v-6.377h-3.8ZM357.844,458.8v3.545h6.839V458.8Zm-10.055-5.849h3.8v-6.378h-3.8Zm-10.052,16.272,2.684,2.506,4.834-4.513-2.69-2.506Zm0-17.3,4.827,4.513,2.69-2.506-4.834-4.513Zm16.374,15.292,4.834,4.513,2.69-2.506-4.84-4.513Zm0,0"/>
      </g>
    </g>
    <path id="Color_Overlay" data-name="Color Overlay" d="M708.106,1298v-6.377h3.8V1298Zm6.323-7.358,2.684-2.506,4.84,4.513-2.691,2.506Zm-16.374,2.006,4.827-4.513,2.69,2.506-4.833,4.512Zm20.106-6.877v-3.545H725v3.545Zm-23.161,0v-3.545h6.839v3.545Zm3.055-10.422,2.684-2.506,4.833,4.513-2.69,2.506Zm10.051,1.028V1270h3.8v6.378Z" fill="#8996a3"/>
  </g>
</svg>
